<svg aria-hidden="true" style="position: absolute; width: 0; height: 0; overflow: hidden;" version="1.1" xmlns="http://www.w3.org/2000/svg" xmlns:xlink="http://www.w3.org/1999/xlink">
<defs>
<symbol id="more" viewBox="0 0 122 32">
<path stroke-linejoin="miter" stroke-linecap="round" stroke-miterlimit="4" stroke-width="25.6" d="M64 12.8v3.2"></path>
<path stroke-linejoin="miter" stroke-linecap="round" stroke-miterlimit="4" stroke-width="25.6" d="M12.8 12.8v3.2"></path>
<path stroke-linejoin="miter" stroke-linecap="round" stroke-miterlimit="4" stroke-width="25.6" d="M108.8 12.8v3.2"></path>
</symbol>
<symbol id="back" viewBox="0 0 30 32">
<path stroke-linejoin="round" stroke-linecap="round" stroke-miterlimit="4" stroke-width="4" d="M28 15h-26M2 15l14-13M2 15l14 14"></path>
</symbol>
<symbol id="repeat" viewBox="0 0 32 32">
<path fill="#783bf9" style="fill: var(--color1, #783bf9)" d="M32 16c0 8.837-7.163 16-16 16s-16-7.163-16-16c0-8.837 7.163-16 16-16s16 7.163 16 16z"></path>
<path fill="none" stroke="#fff" style="stroke: var(--color2, #fff)" stroke-linejoin="round" stroke-linecap="round" stroke-miterlimit="4" stroke-width="1.6842" d="M22.737 17.684c-0.561 1.825-2.936 5.053-6.737 5.053-4.211 0-6.135-2.526-6.737-4.632-0.842-2.947-0.421-9.263 6.737-9.684 1.263-0.074 4.632 0 7.158 5.053M23.158 13.474h-5.053M23.158 13.474v-5.053"></path>
</symbol>
<symbol id="sucsess" viewBox="0 0 32 32">
<path fill="none" stroke="#7640fb" style="stroke: var(--color3, #7640fb)" stroke-linejoin="miter" stroke-linecap="butt" stroke-miterlimit="4" stroke-width="2.1333" d="M30.933 16c0 8.247-6.686 14.933-14.933 14.933s-14.933-6.686-14.933-14.933c0-8.247 6.686-14.933 14.933-14.933s14.933 6.686 14.933 14.933z"></path>
<path fill="none" stroke="#7640fb" style="stroke: var(--color3, #7640fb)" stroke-linejoin="round" stroke-linecap="round" stroke-miterlimit="4" stroke-width="2.1333" d="M10.667 17.067l3.2 2.667 9.067-9.067"></path>
</symbol>
<symbol id="vector" viewBox="0 0 56 32">
<path fill="#9b98a1" style="fill: var(--color4, #9b98a1)" d="M56 16l-26.667-15.396v30.792l26.667-15.396zM1.333 18.667h30.667v-5.333h-30.667v5.333z"></path>
</symbol>
<symbol id="card" viewBox="0 0 43 32">
<path stroke-linejoin="miter" stroke-linecap="butt" stroke-miterlimit="4" stroke-width="3.5556" d="M1.778 10.667v-4.356c0-0.059 0.006-0.117 0.018-0.174 0.479-2.193 2.508-4.359 5.315-4.359 2.844 0 20 0 28.889 0 1.481 0 4.889 1.778 4.889 5.333v3.556M1.778 10.667h39.111M1.778 10.667v14.667c0 1.778 2.044 4.889 4.889 4.889s20 0 28.889 0c2.202 0 4.84-1.745 5.321-4.372 0.009-0.048 0.013-0.097 0.013-0.146v-15.037"></path>
</symbol>
</defs>
</svg>
